<?xml version="1.0" encoding="utf-8"?>
<!-- Generator: Adobe Illustrator 21.0.0, SVG Export Plug-In . SVG Version: 6.00 Build 0)  -->
<svg version="1.1" id="レイヤー_1" xmlns="http://www.w3.org/2000/svg" xmlns:xlink="http://www.w3.org/1999/xlink" x="0px"
	 y="0px" viewBox="0 0 512 512" style="enable-background:new 0 0 512 512;" xml:space="preserve">
<style type="text/css">
	.st0{fill:#009CFF;}
</style>
<g>
	<path class="st0" d="M512,407.8c0,0.2,0,0.4,0,0.5C512,408.2,512,408,512,407.8z"/>
	<path class="st0" d="M512,406.6c0,0.4,0,0.8,0,1.1C512,407.5,512,407.1,512,406.6z"/>
	<path class="st0" d="M512,105.4C512,47.4,464.6,0,406.6,0H105.4C47.4,0,0,47.4,0,105.4v301.2C0,464.6,47.4,512,105.4,512h301.2
		c57.4,0,104.4-46.5,105.4-103.7C511.7,414.3,512,105.4,512,105.4z M384.1,333.2c-29.3,23.3-68.8,36.2-112.2,36.2
		c-49.4,0-95.1-18-95.1-18v58c8.5,2.5,22.3,7.8,13.5,16.6h-66.8c-8.7-8.7,4.1-13.9,13.8-16.6V163.5c-22.5,17.3-34,32.2-39.9,43.3
		c6.8,21.7-6.1,20.7-6.1,20.7l-23.2-36.9c0,0,82.5-93.6,203.8-93.6c46.5,0,86.6,14.4,115.2,39.4c28.6,24.9,45.2,60.5,45.2,99.4
		C432.3,275.4,413.4,310,384.1,333.2z"/>
	<path class="st0" d="M267.8,117.7c-30.3-0.1-67.9,10.1-91.1,26.5v131.6v52.8c21.1,10.4,53.1,17.8,91.1,17.7
		c34,0,63.6-12.6,83.9-32.7c20.3-20.2,31.7-46.6,31.8-78.6c-0.1-32.8-10.8-61.1-30.3-82.4C333.6,131.7,304.7,117.7,267.8,117.7z"/>
</g>
</svg>
