<?xml version="1.0" encoding="utf-8"?>
<!-- Generator: Adobe Illustrator 21.0.0, SVG Export Plug-In . SVG Version: 6.00 Build 0)  -->
<svg version="1.1" id="Layer_1" xmlns="http://www.w3.org/2000/svg" xmlns:xlink="http://www.w3.org/1999/xlink" x="0px" y="0px"
	 viewBox="0 0 95.6 95.6" style="enable-background:new 0 0 95.6 95.6;" xml:space="preserve">
<style type="text/css">
	.st0{fill:#FFFFFF;}
</style>
<path id="XMLID_93_" class="st0" d="M86.9,43.6c3.9-3.8,2.7-7.6-2.7-8.4l-19.5-2.8c-1.4-0.2-3.1-1.4-3.7-2.7L52.2,12
	c-2.4-4.9-6.4-4.9-8.8,0l-8.7,17.7c-0.6,1.3-2.3,2.5-3.7,2.7l-19.5,2.8C6,36,4.8,39.7,8.7,43.6l14.1,13.8c1,1,1.7,3,1.4,4.4
	l-3.3,19.4c-0.9,5.4,2.3,7.7,7.1,5.2l17.4-9.2c1.3-0.7,3.3-0.7,4.6,0l17.4,9.2c4.9,2.6,8.1,0.2,7.1-5.2l-3.3-19.4
	c-0.2-1.4,0.4-3.4,1.4-4.4L86.9,43.6z"/>
</svg>
